<svg version="1.2" xmlns="http://www.w3.org/2000/svg" viewBox="0 0 783 271" width="783" height="271">
	<title>New Project</title>
	<style>
		.s0 { fill: #000000 } 
		.s1 { fill: #029d03 } 
	</style>
	<g id="HUB">
		<path id="Path 0" fill-rule="evenodd" class="s0" d="m216 8h59v258h-59zm-208 1h55.8c30.6 0 60.4 0.4 66.2 1 5.8 0.5 15 2.1 20.5 3.5 5.5 1.4 13.4 4.1 17.5 6.1 4.1 2 10.2 5.5 13.5 7.8 3.3 2.4 8.1 6.7 10.6 9.7 2.6 3 6.3 8.3 8.2 11.9 1.9 3.6 4.4 9.4 5.5 13 1.2 3.6 2.6 9.2 3.1 12.5 0.6 3.3 1.3 10.1 1.7 15 0.3 5.2 0.1 13.2-0.6 19-0.7 5.5-2.3 13.6-3.7 18-1.4 4.4-4.1 10.9-6.1 14.5-2.1 3.9-6.8 9.8-11.6 14.6-6.8 6.8-9.8 8.9-18.6 13.3-5.9 2.9-14.6 6.2-20 7.5-5.4 1.4-15.6 2.9-23.5 3.5-7.7 0.6-23.8 1.1-57.5 1.1v86h-61zm61 120c39.7 0 52.2-0.5 55.3-1.1 2.8-0.6 7.2-2.2 9.7-3.4 2.5-1.2 6-4 7.8-6.1 1.7-2.1 3.9-5.9 4.7-8.4 0.9-2.5 1.9-7.2 2.2-10.5 0.3-3.3 0-9.1-0.7-13-0.6-3.9-1.9-8.4-2.7-10-0.8-1.6-3.2-4.7-5.2-6.8-2-2.1-6.1-4.7-9.1-5.9-5.1-2.1-7.6-2.2-33.7-2.6l-28.1-0.4z"/>
		<path id="Path 1" fill-rule="evenodd" class="s1" d="m373 8l62.5 0.5 0.5 101.5h101v53h-101v103h-63v-103h-98v-53h98zm176 78h18l0.5 30.5 29.5 0.5 0.5-30.5 18.5-0.5v77h-19v-31l-29.5 0.5-0.5 30.5h-18zm83 0h18l0.2 26.8c0.2 23.2 0.5 27.2 2 30 1 1.8 3.1 3.9 4.8 4.7 1.6 0.9 5.3 1.5 8.2 1.6 3.9 0 6.2-0.6 8.8-2.3 2-1.4 4-3.8 4.7-5.8 0.8-2.3 1.2-12 1.3-55l18.5 0.5 0.3 23.5c0.1 14.3-0.2 26.1-0.9 30-0.6 3.6-1.9 8.1-2.9 10-1 2-3.4 5-5.2 6.7-1.8 1.8-5.6 4.2-8.3 5.4-2.8 1.2-8.1 2.4-12 2.7-3.9 0.3-10 0-13.5-0.7-3.6-0.6-8.5-2.4-11-3.9-2.5-1.5-5.8-4.3-7.3-6.2-1.5-1.9-3.4-5.7-4.2-8.5-1.2-3.9-1.6-10.6-1.5-32.2zm101.1 0c9.8 0 20.2 0.5 23.1 1.1 2.9 0.6 6.9 2 9 3 2.1 1 4.7 3.3 5.8 5.1 1.1 1.8 2.3 5.8 2.6 8.8 0.5 4 0.2 6.8-1 10.2-1 2.9-2.9 5.8-4.9 7.4-2.5 2-2.9 2.7-1.7 3.2 0.8 0.3 3 1.9 4.9 3.6 1.8 1.7 4 4.5 4.7 6.3 0.8 1.8 1.3 5.2 1.3 7.5 0 2.4-0.8 6.1-1.8 8.3-1 2.2-3.2 5.2-5 6.7-1.7 1.5-4.8 3.3-6.9 3.9-2.2 0.7-13 1.3-49.2 1.9l-0.2-37.9c-0.1-20.8 0.2-38.1 0.7-38.5 0.4-0.3 8.8-0.6 18.6-0.6zm-0.1 31c16.6 0 18.3-0.3 20-2q2-2 2-6 0-4-2-6c-1.7-1.7-3.4-2-11-2h-9zm0 32c12 0 17.1-0.5 19.2-1 2.1-0.6 4.2-1.9 4.8-3 0.5-1.1 1-3.3 1-4.8 0-1.5-0.8-3.8-1.9-5.2-1.8-2.4-2.6-2.5-12.5-2.9l-10.5-0.3zm-259 39h23l1.4 4.2c0.8 2.4 5.8 16.9 11.1 32.3 5.4 15.4 10.8 31 14.5 41.5h-19l-4.6-14.5-29.9-0.6-5 15.1h-9.2c-6.9 0-9.2-0.3-8.9-1.3 0.2-0.6 5.8-17 12.4-36.2 6.7-19.3 12.6-36.2 13.2-37.8zm6 35.3l-4 11.7h19c-7.1-19.7-9.2-25.6-9.4-25.8-0.1-0.3-0.5 0.2-0.9 1-0.4 0.7-2.5 6.6-4.7 13.1zm247.3-35.3l23.2 0.5 13.2 38c7.3 20.9 13.2 38.4 13.3 38.8 0 0.4-4.1 0.6-18.3 0.2l-4.7-14.5h-30l-5.5 15.1h-8.8c-4.8 0-8.7-0.4-8.7-0.8 0-0.4 5.9-18 13.1-39zm2.7 46.3c0 0.4 4.1 0.7 9 0.7 5 0 9-0.1 9-0.2 0.1-0.2-1.7-5.4-3.8-11.8-2.1-6.3-4.2-12.2-4.7-13.2-0.7-1.3-1.9 1.2-5.2 11-2.3 7-4.2 13.1-4.3 13.5zm-195-45.3h16.8c9.2 0 19.2 0.5 22.2 1 3.1 0.6 7.6 2.1 10 3.3 2.9 1.5 5.5 3.9 7.3 6.8 2.1 3.2 3 6.2 3.4 10.9 0.3 3.6 0.1 8.4-0.5 10.8-0.7 2.3-2.7 5.9-4.5 8-1.9 2-4.8 4.4-9.6 6.7l6.7 11c3.8 6.1 7.8 12.7 11.2 18.5h-20.5l-16-27.5-8.5-0.5v28h-18zm18 34c11.3 0.1 16-0.4 17.8-1 1.8-0.5 3.7-1.9 4.2-3 0.6-1.1 1-3.8 1-6 0-3.2-0.5-4.4-2.7-6-2.3-1.7-4.2-2-11.5-2h-8.8zm77.5-33.9l9.5 13.9c5.3 7.7 9.8 13.8 10 13.6 0.3-0.2 4.6-6.5 18.5-27.6l21 0.5 0.5 76.5h-19l-0.5-49.2-16.5 24.2h-9.5l-16-24.1-0.5 49.1h-19l-0.1-37.8c-0.1-20.8 0.2-38.1 0.6-38.5 0.5-0.4 5.4-0.7 21-0.6z"/>
	</g>
</svg>